# xmcd
#
# Track frame offsets:
#   150
#   13575
#   25060
#   36105
#   50022
#   61677
#   74360
#   88357
#   102380
#   114847
#   125392
#   136652
#
# Disc length: 1991 seconds
#
# Revision: 0
# Processed by: cddbd v1.5.1PL0 Copyright (c) Steve Scherf et al.
# Submitted via: uFREEDB ActiveX Control 1.5
#
DISCID=9a07c50c
DTITLE=teodoro e sampaio - vestido de seda
DYEAR=1900
DGENRE=Country
TTITLE0=vestido de seda
TTITLE1=cao de guarda
TTITLE2=coracao na boca
TTITLE3=agua no leite
TTITLE4=doutora do amor
TTITLE5=nossas brigas
TTITLE6=pobre menina rica
TTITLE7=a voz do povo
TTITLE8=a casa da alegria
TTITLE9=mulher e comigo mesmo
TTITLE10=o mordomo
TTITLE11=o jardineiro
EXTD=
EXTT0=
EXTT1=
EXTT2=
EXTT3=
EXTT4=
EXTT5=
EXTT6=
EXTT7=
EXTT8=
EXTT9=
EXTT10=
EXTT11=
PLAYORDER=
